<?xml version="1.0" encoding="UTF-8"?><svg id="Layer_1" xmlns="http://www.w3.org/2000/svg" xmlns:xlink="http://www.w3.org/1999/xlink" viewBox="0 0 790 790"><defs><style>.cls-1{fill:url(#linear-gradient);}</style><linearGradient id="linear-gradient" x1="59.39" y1="395" x2="732.61" y2="395" gradientUnits="userSpaceOnUse"><stop offset="0" stop-color="#d68800"/><stop offset=".01" stop-color="#d48603"/><stop offset=".7" stop-color="#8552b2"/><stop offset="1" stop-color="#663df9"/></linearGradient></defs><path class="cls-1" d="m732.61,396.17l-2.73-4.66v-187.43L394.64,13.18,59.39,204.09v188h0v193.81l335.25,190.91,335.25-190.91v-188.18l2.73-1.55Zm-25.11,176.99l-141.83,80.77v-284.76h-.46l33.31-18.97v-50.15l-44.04-25.08-22.42,12.77-100.86-58.75c-5.72,3.71-13.57,8.83-20.77,13.54l100.01,58.26v49.41l33.31,18.97h-.46v297.5l-148.66,84.65-149.69-85.24v-140.09l-22.38-12.74v140.09l-140.8-80.18v-162.89l269.17,153.22v37.4l44.04,25.08,44.04-25.08v-37.6l84.57-48.14v-25.48l-95.92,54.6-32.69-18.61-32.86,18.71L81.77,384.79v-167.95l143.9-81.95,130.11,75.79,20.33-13.78-128.2-74.68,146.72-83.55,142.57,81.18-284.65,165.82-18.8-10.71-44.04,25.08v50.15l33.3,18.96h-.45v73.71l22.38,12.74v-86.45h-.46l33.3-18.96v-50.15l-2.98-1.7,284.05-165.47-.63-1.05,149.27,85v168.15l-122.12,69.51v25.48l122.12-69.51v162.7Z"/></svg>